<?xml version="1.0" encoding="utf-8"?>
<!-- Generator: Adobe Illustrator 28.0.0, SVG Export Plug-In . SVG Version: 6.00 Build 0)  -->
<svg version="1.1" xmlns="http://www.w3.org/2000/svg" xmlns:xlink="http://www.w3.org/1999/xlink" x="0px" y="0px"
	 viewBox="0 0 2629.4 2431.4" style="enable-background:new 0 0 2629.4 2431.4;" xml:space="preserve">
<style type="text/css">
	.st0{fill:none;}
	.st1{fill:none;stroke:#DD2424;stroke-width:5;stroke-miterlimit:10;}
	.st2{fill:none;stroke:#000000;stroke-width:2.197;stroke-miterlimit:10;}
	.st3{fill:url(#SVGID_1_);}
	.st4{fill:#DD2424;}
	.st5{fill:none;stroke:#000000;stroke-width:65.91;stroke-miterlimit:10;}
	.st6{fill:#28AF28;}
	.st7{fill:url(#SVGID_00000001663556882229328650000012963034464019561391_);}
	.st8{fill:#FFFFFF;}
	.st9{fill:none;stroke:#FFFFFF;stroke-width:9.2531;stroke-miterlimit:10;}
	.st10{fill:url(#SVGID_00000069396554869208697920000002395638149924607155_);}
	.st11{fill:none;stroke:#FFFFFF;stroke-width:7.3867;stroke-miterlimit:10;}
	.st12{fill:url(#SVGID_00000078046716398458228010000013268176961415188669_);}
	.st13{fill:none;stroke:#000000;stroke-width:10.985;stroke-miterlimit:10;stroke-dasharray:26.364;}
	.st14{fill:none;stroke:#000000;stroke-width:10.985;stroke-miterlimit:10;}
	.st15{fill:none;stroke:#000000;stroke-width:21.97;stroke-miterlimit:10;}
</style>
<pattern  x="1718.4" y="331.4" width="632.1" height="510.2" patternUnits="userSpaceOnUse" id="New_Pattern_2" viewBox="76.6 -613.8 632.1 510.2" style="overflow:visible;">
	<g>
		<rect x="76.6" y="-613.8" class="st0" width="632.1" height="510.2"/>
		<g>
			<line class="st1" x1="783.3" y1="-103.7" x2="708.5" y2="-1.5"/>
			<line class="st1" x1="746.2" y1="-103.7" x2="671.3" y2="-1.5"/>
		</g>
		<g>
			<line class="st1" x1="188.4" y1="-103.7" x2="113.6" y2="-1.5"/>
			<line class="st1" x1="151.2" y1="-103.7" x2="76.4" y2="-1.5"/>
			<line class="st1" x1="114" y1="-103.7" x2="39.2" y2="-1.5"/>
			<line class="st1" x1="225.6" y1="-103.7" x2="150.8" y2="-1.5"/>
			<line class="st1" x1="262.8" y1="-103.7" x2="187.9" y2="-1.5"/>
			<line class="st1" x1="299.9" y1="-103.7" x2="225.1" y2="-1.5"/>
			<line class="st1" x1="337.1" y1="-103.7" x2="262.3" y2="-1.5"/>
			<line class="st1" x1="374.3" y1="-103.7" x2="299.5" y2="-1.5"/>
			<line class="st1" x1="411.5" y1="-103.7" x2="336.7" y2="-1.5"/>
			<line class="st1" x1="448.7" y1="-103.7" x2="373.9" y2="-1.5"/>
			<line class="st1" x1="485.9" y1="-103.7" x2="411" y2="-1.5"/>
			<line class="st1" x1="523" y1="-103.7" x2="448.2" y2="-1.5"/>
			<line class="st1" x1="560.2" y1="-103.7" x2="485.4" y2="-1.5"/>
			<line class="st1" x1="597.4" y1="-103.7" x2="522.6" y2="-1.5"/>
			<line class="st1" x1="634.6" y1="-103.7" x2="559.8" y2="-1.5"/>
			<line class="st1" x1="671.8" y1="-103.7" x2="597" y2="-1.5"/>
			<line class="st1" x1="709" y1="-103.7" x2="634.1" y2="-1.5"/>
			<line class="st1" x1="746.2" y1="-103.7" x2="671.3" y2="-1.5"/>
		</g>
		<g>
			<line class="st1" x1="76.8" y1="-103.7" x2="2" y2="-1.5"/>
			<line class="st1" x1="114" y1="-103.7" x2="39.2" y2="-1.5"/>
		</g>
		<g>
			<line class="st1" x1="783.3" y1="-205.7" x2="708.5" y2="-103.5"/>
			<line class="st1" x1="746.2" y1="-205.7" x2="671.3" y2="-103.5"/>
		</g>
		<g>
			<line class="st1" x1="188.4" y1="-205.7" x2="113.6" y2="-103.5"/>
			<line class="st1" x1="151.2" y1="-205.7" x2="76.4" y2="-103.5"/>
			<line class="st1" x1="114" y1="-205.7" x2="39.2" y2="-103.5"/>
			<line class="st1" x1="225.6" y1="-205.7" x2="150.8" y2="-103.5"/>
			<line class="st1" x1="262.8" y1="-205.7" x2="187.9" y2="-103.5"/>
			<line class="st1" x1="299.9" y1="-205.7" x2="225.1" y2="-103.5"/>
			<line class="st1" x1="337.1" y1="-205.7" x2="262.3" y2="-103.5"/>
			<line class="st1" x1="374.3" y1="-205.7" x2="299.5" y2="-103.5"/>
			<line class="st1" x1="411.5" y1="-205.7" x2="336.7" y2="-103.5"/>
			<line class="st1" x1="448.7" y1="-205.7" x2="373.9" y2="-103.5"/>
			<line class="st1" x1="485.9" y1="-205.7" x2="411" y2="-103.5"/>
			<line class="st1" x1="523" y1="-205.7" x2="448.2" y2="-103.5"/>
			<line class="st1" x1="560.2" y1="-205.7" x2="485.4" y2="-103.5"/>
			<line class="st1" x1="597.4" y1="-205.7" x2="522.6" y2="-103.5"/>
			<line class="st1" x1="634.6" y1="-205.7" x2="559.8" y2="-103.5"/>
			<line class="st1" x1="671.8" y1="-205.7" x2="597" y2="-103.5"/>
			<line class="st1" x1="709" y1="-205.7" x2="634.1" y2="-103.5"/>
			<line class="st1" x1="746.2" y1="-205.7" x2="671.3" y2="-103.5"/>
		</g>
		<g>
			<line class="st1" x1="76.8" y1="-205.7" x2="2" y2="-103.5"/>
			<line class="st1" x1="114" y1="-205.7" x2="39.2" y2="-103.5"/>
		</g>
		<g>
			<line class="st1" x1="783.3" y1="-307.8" x2="708.5" y2="-205.6"/>
			<line class="st1" x1="746.2" y1="-307.8" x2="671.3" y2="-205.6"/>
		</g>
		<g>
			<line class="st1" x1="188.4" y1="-307.8" x2="113.6" y2="-205.6"/>
			<line class="st1" x1="151.2" y1="-307.8" x2="76.4" y2="-205.6"/>
			<line class="st1" x1="114" y1="-307.8" x2="39.2" y2="-205.6"/>
			<line class="st1" x1="225.6" y1="-307.8" x2="150.8" y2="-205.6"/>
			<line class="st1" x1="262.8" y1="-307.8" x2="187.9" y2="-205.6"/>
			<line class="st1" x1="299.9" y1="-307.8" x2="225.1" y2="-205.6"/>
			<line class="st1" x1="337.1" y1="-307.8" x2="262.3" y2="-205.6"/>
			<line class="st1" x1="374.3" y1="-307.8" x2="299.5" y2="-205.6"/>
			<line class="st1" x1="411.5" y1="-307.8" x2="336.7" y2="-205.6"/>
			<line class="st1" x1="448.7" y1="-307.8" x2="373.9" y2="-205.6"/>
			<line class="st1" x1="485.9" y1="-307.8" x2="411" y2="-205.6"/>
			<line class="st1" x1="523" y1="-307.8" x2="448.2" y2="-205.6"/>
			<line class="st1" x1="560.2" y1="-307.8" x2="485.4" y2="-205.6"/>
			<line class="st1" x1="597.4" y1="-307.8" x2="522.6" y2="-205.6"/>
			<line class="st1" x1="634.6" y1="-307.8" x2="559.8" y2="-205.6"/>
			<line class="st1" x1="671.8" y1="-307.8" x2="597" y2="-205.6"/>
			<line class="st1" x1="709" y1="-307.8" x2="634.1" y2="-205.6"/>
			<line class="st1" x1="746.2" y1="-307.8" x2="671.3" y2="-205.6"/>
		</g>
		<g>
			<line class="st1" x1="76.8" y1="-307.8" x2="2" y2="-205.6"/>
			<line class="st1" x1="114" y1="-307.8" x2="39.2" y2="-205.6"/>
		</g>
		<g>
			<line class="st1" x1="783.3" y1="-409.8" x2="708.5" y2="-307.6"/>
			<line class="st1" x1="746.2" y1="-409.8" x2="671.3" y2="-307.6"/>
		</g>
		<g>
			<line class="st1" x1="188.4" y1="-409.8" x2="113.6" y2="-307.6"/>
			<line class="st1" x1="151.2" y1="-409.8" x2="76.4" y2="-307.6"/>
			<line class="st1" x1="114" y1="-409.8" x2="39.2" y2="-307.6"/>
			<line class="st1" x1="225.6" y1="-409.8" x2="150.8" y2="-307.6"/>
			<line class="st1" x1="262.8" y1="-409.8" x2="187.9" y2="-307.6"/>
			<line class="st1" x1="299.9" y1="-409.8" x2="225.1" y2="-307.6"/>
			<line class="st1" x1="337.1" y1="-409.8" x2="262.3" y2="-307.6"/>
			<line class="st1" x1="374.3" y1="-409.8" x2="299.5" y2="-307.6"/>
			<line class="st1" x1="411.5" y1="-409.8" x2="336.7" y2="-307.6"/>
			<line class="st1" x1="448.7" y1="-409.8" x2="373.9" y2="-307.6"/>
			<line class="st1" x1="485.9" y1="-409.8" x2="411" y2="-307.6"/>
			<line class="st1" x1="523" y1="-409.8" x2="448.2" y2="-307.6"/>
			<line class="st1" x1="560.2" y1="-409.8" x2="485.4" y2="-307.6"/>
			<line class="st1" x1="597.4" y1="-409.8" x2="522.6" y2="-307.6"/>
			<line class="st1" x1="634.6" y1="-409.8" x2="559.8" y2="-307.6"/>
			<line class="st1" x1="671.8" y1="-409.8" x2="597" y2="-307.6"/>
			<line class="st1" x1="709" y1="-409.8" x2="634.1" y2="-307.6"/>
			<line class="st1" x1="746.2" y1="-409.8" x2="671.3" y2="-307.6"/>
		</g>
		<g>
			<line class="st1" x1="76.8" y1="-409.8" x2="2" y2="-307.6"/>
			<line class="st1" x1="114" y1="-409.8" x2="39.2" y2="-307.6"/>
		</g>
		<g>
			<line class="st1" x1="783.3" y1="-511.9" x2="708.5" y2="-409.7"/>
			<line class="st1" x1="746.2" y1="-511.9" x2="671.3" y2="-409.7"/>
		</g>
		<g>
			<line class="st1" x1="188.4" y1="-511.9" x2="113.6" y2="-409.7"/>
			<line class="st1" x1="151.2" y1="-511.9" x2="76.4" y2="-409.7"/>
			<line class="st1" x1="114" y1="-511.9" x2="39.2" y2="-409.7"/>
			<line class="st1" x1="225.6" y1="-511.9" x2="150.8" y2="-409.7"/>
			<line class="st1" x1="262.8" y1="-511.9" x2="187.9" y2="-409.7"/>
			<line class="st1" x1="299.9" y1="-511.9" x2="225.1" y2="-409.7"/>
			<line class="st1" x1="337.1" y1="-511.9" x2="262.3" y2="-409.7"/>
			<line class="st1" x1="374.3" y1="-511.9" x2="299.5" y2="-409.7"/>
			<line class="st1" x1="411.5" y1="-511.9" x2="336.7" y2="-409.7"/>
			<line class="st1" x1="448.7" y1="-511.9" x2="373.9" y2="-409.7"/>
			<line class="st1" x1="485.9" y1="-511.9" x2="411" y2="-409.7"/>
			<line class="st1" x1="523" y1="-511.9" x2="448.2" y2="-409.7"/>
			<line class="st1" x1="560.2" y1="-511.9" x2="485.4" y2="-409.7"/>
			<line class="st1" x1="597.4" y1="-511.9" x2="522.6" y2="-409.7"/>
			<line class="st1" x1="634.6" y1="-511.9" x2="559.8" y2="-409.7"/>
			<line class="st1" x1="671.8" y1="-511.9" x2="597" y2="-409.7"/>
			<line class="st1" x1="709" y1="-511.9" x2="634.1" y2="-409.7"/>
			<line class="st1" x1="746.2" y1="-511.9" x2="671.3" y2="-409.7"/>
		</g>
		<g>
			<line class="st1" x1="76.8" y1="-511.9" x2="2" y2="-409.7"/>
			<line class="st1" x1="114" y1="-511.9" x2="39.2" y2="-409.7"/>
		</g>
		<g>
			<line class="st1" x1="783.3" y1="-613.9" x2="708.5" y2="-511.7"/>
			<line class="st1" x1="746.2" y1="-613.9" x2="671.3" y2="-511.7"/>
		</g>
		<g>
			<line class="st1" x1="188.4" y1="-613.9" x2="113.6" y2="-511.7"/>
			<line class="st1" x1="151.2" y1="-613.9" x2="76.4" y2="-511.7"/>
			<line class="st1" x1="114" y1="-613.9" x2="39.2" y2="-511.7"/>
			<line class="st1" x1="225.6" y1="-613.9" x2="150.8" y2="-511.7"/>
			<line class="st1" x1="262.8" y1="-613.9" x2="187.9" y2="-511.7"/>
			<line class="st1" x1="299.9" y1="-613.9" x2="225.1" y2="-511.7"/>
			<line class="st1" x1="337.1" y1="-613.9" x2="262.3" y2="-511.7"/>
			<line class="st1" x1="374.3" y1="-613.9" x2="299.5" y2="-511.7"/>
			<line class="st1" x1="411.5" y1="-613.9" x2="336.7" y2="-511.7"/>
			<line class="st1" x1="448.7" y1="-613.9" x2="373.9" y2="-511.7"/>
			<line class="st1" x1="485.9" y1="-613.9" x2="411" y2="-511.7"/>
			<line class="st1" x1="523" y1="-613.9" x2="448.2" y2="-511.7"/>
			<line class="st1" x1="560.2" y1="-613.9" x2="485.4" y2="-511.7"/>
			<line class="st1" x1="597.4" y1="-613.9" x2="522.6" y2="-511.7"/>
			<line class="st1" x1="634.6" y1="-613.9" x2="559.8" y2="-511.7"/>
			<line class="st1" x1="671.8" y1="-613.9" x2="597" y2="-511.7"/>
			<line class="st1" x1="709" y1="-613.9" x2="634.1" y2="-511.7"/>
			<line class="st1" x1="746.2" y1="-613.9" x2="671.3" y2="-511.7"/>
		</g>
		<g>
			<line class="st1" x1="76.8" y1="-613.9" x2="2" y2="-511.7"/>
			<line class="st1" x1="114" y1="-613.9" x2="39.2" y2="-511.7"/>
		</g>
		<g>
			<line class="st1" x1="783.3" y1="-716" x2="708.5" y2="-613.8"/>
			<line class="st1" x1="746.2" y1="-716" x2="671.3" y2="-613.8"/>
		</g>
		<g>
			<line class="st1" x1="188.4" y1="-716" x2="113.6" y2="-613.8"/>
			<line class="st1" x1="151.2" y1="-716" x2="76.4" y2="-613.8"/>
			<line class="st1" x1="114" y1="-716" x2="39.2" y2="-613.8"/>
			<line class="st1" x1="225.6" y1="-716" x2="150.8" y2="-613.8"/>
			<line class="st1" x1="262.8" y1="-716" x2="187.9" y2="-613.8"/>
			<line class="st1" x1="299.9" y1="-716" x2="225.1" y2="-613.8"/>
			<line class="st1" x1="337.1" y1="-716" x2="262.3" y2="-613.8"/>
			<line class="st1" x1="374.3" y1="-716" x2="299.5" y2="-613.8"/>
			<line class="st1" x1="411.5" y1="-716" x2="336.7" y2="-613.8"/>
			<line class="st1" x1="448.7" y1="-716" x2="373.9" y2="-613.8"/>
			<line class="st1" x1="485.9" y1="-716" x2="411" y2="-613.8"/>
			<line class="st1" x1="523" y1="-716" x2="448.2" y2="-613.8"/>
			<line class="st1" x1="560.2" y1="-716" x2="485.4" y2="-613.8"/>
			<line class="st1" x1="597.4" y1="-716" x2="522.6" y2="-613.8"/>
			<line class="st1" x1="634.6" y1="-716" x2="559.8" y2="-613.8"/>
			<line class="st1" x1="671.8" y1="-716" x2="597" y2="-613.8"/>
			<line class="st1" x1="709" y1="-716" x2="634.1" y2="-613.8"/>
			<line class="st1" x1="746.2" y1="-716" x2="671.3" y2="-613.8"/>
		</g>
		<g>
			<line class="st1" x1="76.8" y1="-716" x2="2" y2="-613.8"/>
			<line class="st1" x1="114" y1="-716" x2="39.2" y2="-613.8"/>
		</g>
	</g>
</pattern>
<g id="Base">
	<g>
		<path class="st2" d="M1.1,2336.7V94.6C1.1,43,43,1.1,94.6,1.1h2440.1c51.7,0,93.5,41.9,93.5,93.5v2242.1
			c0,51.7-41.9,93.5-93.5,93.5H94.6C43,2430.3,1.1,2388.4,1.1,2336.7z"/>
		<g>
			<path d="M2503.5,85.3c22.4,0,40.6,18.2,40.6,40.6v2179.5c0,22.4-18.2,40.6-40.6,40.6H125.9c-22.4,0-40.6-18.2-40.6-40.6V125.9
				c0-22.4,18.2-40.6,40.6-40.6H2503.5 M2503.5,63.4H125.9c-34.5,0-62.5,28-62.5,62.5v2179.5c0,34.5,28,62.5,62.5,62.5h2377.6
				c34.5,0,62.5-28,62.5-62.5V125.9C2566,91.4,2538,63.4,2503.5,63.4L2503.5,63.4z"/>
		</g>
	</g>
	<path d="M2566,348.6H63.4v-218c0-37.9,30.7-68.7,68.7-68.7h2365.3c37.9,0,68.7,30.7,68.7,68.7V348.6z"/>
</g>
<g id="Sign">
	<g>
		<pattern  id="SVGID_1_" xlink:href="#New_Pattern_2" patternTransform="matrix(2.197 0 0 2.197 13706.376 6617.9756)">
		</pattern>
		<rect x="671.9" y="1832.6" class="st3" width="479.6" height="238.1"/>
		<g>
			<path class="st4" d="M1146,1838.1v227.1H677.4v-227.1H1146 M1157,1827.1H666.4v249.1H1157V1827.1L1157,1827.1z"/>
		</g>
	</g>
	<g>
		<g>
			<line class="st5" x1="2226.2" y1="759.6" x2="2375.2" y2="759.6"/>
			<g>
				<polygon points="2359.1,639.5 2359.1,879.8 2479.2,759.6 				"/>
			</g>
		</g>
	</g>
	<line class="st5" x1="162.6" y1="759.6" x2="403.2" y2="759.6"/>
	<rect x="2025.2" y="635.1" class="st6" width="169.8" height="249.1"/>
	<rect x="434.3" y="635.1" class="st6" width="169.8" height="249.1"/>
	<g>
		
			<pattern  id="SVGID_00000091008071579433046770000000253557742588805011_" xlink:href="#New_Pattern_2" patternTransform="matrix(2.197 0 0 2.197 13706.376 6546.9805)">
		</pattern>
		
			<rect x="671.9" y="640.6" style="fill:url(#SVGID_00000091008071579433046770000000253557742588805011_);" width="1285.5" height="238.1"/>
		<g>
			<path class="st4" d="M1952,646.1v227.1H677.4V646.1H1952 M1962.9,635.1H666.4v249.1h1296.5V635.1L1962.9,635.1z"/>
		</g>
	</g>
	<g>
		<g>
			<circle class="st4" cx="1078" cy="759.5" r="95"/>
			<g>
				<path class="st8" d="M1078,689.4c38.5,0,69.8,31.3,69.8,69.8s-31.3,69.8-69.8,69.8s-69.8-31.3-69.8-69.8
					S1039.5,689.4,1078,689.4 M1078,680.1c-43.6,0-79,35.5-79,79c0,43.6,35.5,79,79,79c43.6,0,79-35.5,79-79
					C1157,715.6,1121.5,680.1,1078,680.1L1078,680.1z"/>
			</g>
			<g>
				<path class="st8" d="M1060.1,815V703.9h23.9c4.4,0,8.2,0.6,11.5,1.7c3.3,1.1,6.3,3.2,9.1,6.1c2.7,2.9,4.6,6.3,5.6,10.2
					c1,3.9,1.6,9.2,1.6,15.8c0,5-0.3,9.2-0.9,12.6c-0.6,3.4-1.8,6.7-3.7,9.7c-2.2,3.6-5.1,6.5-8.7,8.5c-3.6,2-8.4,3-14.4,3h-8.1V815
					H1060.1z M1076,718.9v37.8h7.6c3.2,0,5.7-0.5,7.5-1.4c1.8-0.9,3.1-2.2,3.9-3.9c0.8-1.6,1.3-3.5,1.5-5.8c0.2-2.3,0.2-4.8,0.2-7.6
					c0-2.6-0.1-5.1-0.2-7.4c-0.1-2.3-0.6-4.4-1.4-6.2c-0.8-1.8-2.1-3.1-3.7-4.1c-1.7-0.9-4.1-1.4-7.2-1.4H1076z"/>
			</g>
			<line class="st9" x1="1022.1" y1="703.6" x2="1133.8" y2="815.4"/>
		</g>
		<g>
			<rect x="1191.5" y="664.7" class="st4" width="455" height="190.2"/>
			<rect x="1441.2" y="677.7" class="st8" width="190.2" height="164"/>
			<g>
				<path class="st8" d="M1223.5,753.1V705h20.5v6.5h-13.6v14.1h11.9v6.5h-11.9v14.1h13.6v6.9H1223.5z"/>
				<path class="st8" d="M1247.1,753.1l9.7-25.2l-9-22.9h7.3l5.2,14.2l5.3-14.2h7.3l-9.2,22.9l9.9,25.2h-7.3l-6-16.2l-5.9,16.2
					H1247.1z"/>
				<path class="st8" d="M1300.7,739.4v3c0,1.5-0.3,2.9-0.8,4.2c-0.6,1.3-1.3,2.5-2.3,3.5c-1,1-2.2,1.9-3.5,2.5
					c-1.3,0.6-2.8,0.9-4.3,0.9c-1.3,0-2.6-0.2-4-0.5c-1.4-0.4-2.6-1-3.6-1.9c-1.1-0.9-2-2.1-2.7-3.5c-0.7-1.4-1-3.2-1-5.4v-26.5
					c0-1.6,0.3-3,0.8-4.4c0.5-1.4,1.3-2.5,2.3-3.5c1-1,2.2-1.8,3.5-2.3c1.4-0.6,2.9-0.8,4.6-0.8c3.2,0,5.9,1.1,7.9,3.2
					c1,1,1.8,2.3,2.3,3.7c0.6,1.4,0.8,3,0.8,4.6v2.7h-6.9v-2.3c0-1.4-0.4-2.5-1.1-3.5c-0.8-1-1.8-1.5-3.1-1.5
					c-1.7,0-2.8,0.5-3.4,1.6c-0.6,1.1-0.8,2.4-0.8,4v24.6c0,1.4,0.3,2.6,0.9,3.5s1.7,1.4,3.3,1.4c0.4,0,0.9-0.1,1.5-0.2
					c0.5-0.2,1-0.4,1.5-0.8c0.4-0.4,0.7-0.9,1-1.5c0.3-0.6,0.4-1.4,0.4-2.4v-2.4H1300.7z"/>
				<path class="st8" d="M1308.3,753.1V705h20.5v6.5h-13.6v14.1h11.9v6.5h-11.9v14.1h13.6v6.9H1308.3z"/>
				<path class="st8" d="M1335.3,753.1V705h10.3c1.9,0,3.6,0.2,5,0.7c1.4,0.5,2.7,1.4,3.9,2.6c1.2,1.3,2,2.7,2.4,4.4
					c0.4,1.7,0.7,4,0.7,6.9c0,2.2-0.1,4-0.4,5.5c-0.2,1.5-0.8,2.9-1.6,4.2c-0.9,1.6-2.2,2.8-3.8,3.7c-1.6,0.9-3.6,1.3-6.2,1.3h-3.5
					v18.8H1335.3z M1342.2,711.5v16.3h3.3c1.4,0,2.5-0.2,3.2-0.6c0.8-0.4,1.3-1,1.7-1.7c0.4-0.7,0.6-1.5,0.6-2.5
					c0.1-1,0.1-2.1,0.1-3.3c0-1.1,0-2.2-0.1-3.2c0-1-0.2-1.9-0.6-2.7c-0.4-0.8-0.9-1.4-1.6-1.8c-0.7-0.4-1.8-0.6-3.1-0.6H1342.2z"/>
				<path class="st8" d="M1369.3,753.1v-41.6h-8V705h22.8v6.5h-8v41.6H1369.3z"/>
				<path class="st8" d="M1389.3,753.1V705h20.5v6.5h-13.6v14.1h11.9v6.5h-11.9v14.1h13.6v6.9H1389.3z M1394.8,702.9l6.1-9.5h7.3
					l-8.9,9.5H1394.8z"/>
				<path class="st8" d="M1233.8,820.6v-48.1h10.3c1.9,0,3.6,0.2,5,0.7c1.4,0.5,2.7,1.4,3.9,2.6c1.2,1.3,2,2.7,2.4,4.4
					c0.4,1.7,0.7,4,0.7,6.9c0,2.2-0.1,4-0.4,5.5c-0.2,1.5-0.8,2.9-1.6,4.2c-0.9,1.6-2.2,2.8-3.8,3.7c-1.6,0.9-3.6,1.3-6.2,1.3h-3.5
					v18.8H1233.8z M1240.7,779v16.3h3.3c1.4,0,2.5-0.2,3.2-0.6c0.8-0.4,1.3-1,1.7-1.7c0.4-0.7,0.6-1.5,0.6-2.5
					c0.1-1,0.1-2.1,0.1-3.3c0-1.1,0-2.2-0.1-3.2c0-1-0.2-1.9-0.6-2.7c-0.4-0.8-0.9-1.4-1.6-1.8c-0.7-0.4-1.8-0.6-3.1-0.6H1240.7z"/>
				<path class="st8" d="M1263.3,820.6v-48.1h20.5v6.5h-13.6v14.1h11.9v6.5h-11.9v14.1h13.6v6.9H1263.3z"/>
				<path class="st8" d="M1290.3,820.6v-48.1h11.1c8.1,0,12.2,4.7,12.2,14.1c0,2.8-0.4,5.2-1.3,7.2c-0.9,2-2.4,3.6-4.6,4.8l7.4,21.9
					h-7.3l-6.4-20.5h-4.1v20.5H1290.3z M1297.2,779v15h3.9c1.2,0,2.2-0.2,2.9-0.5c0.7-0.3,1.3-0.8,1.7-1.5c0.4-0.6,0.6-1.4,0.7-2.3
					c0.1-0.9,0.2-2,0.2-3.2c0-1.2-0.1-2.3-0.2-3.2c-0.1-0.9-0.4-1.7-0.8-2.4c-0.9-1.3-2.5-1.9-4.9-1.9H1297.2z"/>
				<path class="st8" d="M1321.1,820.6v-48.1h6.6l8.8,25.5h0.1l8.8-25.5h6.7v48.1h-6.9v-29.2h-0.1l-6.8,20.7h-3.4l-6.8-20.7h-0.1
					v29.2H1321.1z"/>
				<path class="st8" d="M1360.9,820.6v-48.1h6.9v48.1H1360.9z"/>
				<path class="st8" d="M1398.8,786.4h-6.9v-1.6c0-1.6-0.4-2.9-1.1-4.1s-2-1.7-3.7-1.7c-0.9,0-1.7,0.2-2.3,0.5
					c-0.6,0.4-1.1,0.8-1.4,1.4c-0.4,0.6-0.6,1.2-0.7,2c-0.1,0.7-0.2,1.5-0.2,2.3c0,0.9,0,1.7,0.1,2.4c0.1,0.6,0.2,1.2,0.5,1.7
					c0.3,0.5,0.7,0.9,1.2,1.3c0.5,0.4,1.2,0.7,2.1,1.1l5.3,2.1c1.5,0.6,2.8,1.3,3.7,2.1c0.9,0.8,1.7,1.7,2.2,2.7
					c0.5,1.1,0.8,2.3,1,3.7c0.2,1.4,0.3,2.9,0.3,4.7c0,2-0.2,3.9-0.6,5.6c-0.4,1.7-1.1,3.2-2,4.4c-0.9,1.3-2.2,2.3-3.7,3
					c-1.5,0.7-3.4,1.1-5.6,1.1c-1.7,0-3.2-0.3-4.7-0.9c-1.4-0.6-2.7-1.4-3.7-2.4c-1-1-1.9-2.2-2.5-3.6c-0.6-1.4-0.9-2.9-0.9-4.5V807
					h6.9v2.2c0,1.3,0.4,2.4,1.1,3.4s2,1.5,3.7,1.5c1.2,0,2.1-0.2,2.7-0.5c0.7-0.3,1.2-0.8,1.5-1.5c0.4-0.6,0.6-1.4,0.6-2.3
					c0.1-0.9,0.1-1.9,0.1-2.9c0-1.3,0-2.3-0.1-3.1c-0.1-0.8-0.3-1.5-0.5-2c-0.3-0.5-0.7-0.9-1.2-1.2c-0.5-0.3-1.2-0.7-2.1-1l-4.9-2
					c-3-1.2-5-2.8-6-4.8c-1-2-1.5-4.5-1.5-7.5c0-1.8,0.2-3.5,0.7-5.1c0.5-1.6,1.2-3,2.2-4.2c0.9-1.2,2.1-2.1,3.6-2.8
					c1.5-0.7,3.2-1,5.2-1c1.7,0,3.3,0.3,4.7,0.9c1.4,0.6,2.6,1.5,3.7,2.5c2.1,2.2,3.1,4.6,3.1,7.4V786.4z"/>
			</g>
			<g>
				<path d="M1488.4,700.6h-4.5v-1c0-1-0.2-1.9-0.7-2.6c-0.5-0.7-1.3-1.1-2.4-1.1c-0.6,0-1.1,0.1-1.5,0.3c-0.4,0.2-0.7,0.5-0.9,0.9
					c-0.2,0.4-0.4,0.8-0.5,1.3c-0.1,0.5-0.1,1-0.1,1.5c0,0.6,0,1.1,0.1,1.5c0,0.4,0.2,0.8,0.3,1.1c0.2,0.3,0.4,0.6,0.8,0.8
					c0.3,0.2,0.8,0.5,1.4,0.7l3.4,1.4c1,0.4,1.8,0.8,2.4,1.3c0.6,0.5,1.1,1.1,1.4,1.8c0.3,0.7,0.5,1.5,0.7,2.4
					c0.1,0.9,0.2,1.9,0.2,3c0,1.3-0.1,2.5-0.4,3.6c-0.3,1.1-0.7,2.1-1.3,2.9c-0.6,0.8-1.4,1.5-2.4,1.9c-1,0.5-2.2,0.7-3.6,0.7
					c-1.1,0-2.1-0.2-3-0.6c-0.9-0.4-1.7-0.9-2.4-1.6c-0.7-0.7-1.2-1.4-1.6-2.3c-0.4-0.9-0.6-1.9-0.6-2.9v-1.7h4.5v1.4
					c0,0.8,0.2,1.6,0.7,2.2c0.5,0.7,1.3,1,2.4,1c0.8,0,1.3-0.1,1.8-0.3c0.4-0.2,0.7-0.5,1-0.9c0.2-0.4,0.4-0.9,0.4-1.5
					c0-0.6,0.1-1.2,0.1-1.9c0-0.8,0-1.5-0.1-2c-0.1-0.5-0.2-0.9-0.3-1.3c-0.2-0.3-0.5-0.6-0.8-0.8c-0.3-0.2-0.8-0.4-1.3-0.7
					l-3.2-1.3c-1.9-0.8-3.2-1.8-3.9-3.1c-0.7-1.3-1-2.9-1-4.9c0-1.2,0.2-2.3,0.5-3.3c0.3-1,0.8-2,1.4-2.7c0.6-0.8,1.4-1.4,2.3-1.8
					c0.9-0.5,2.1-0.7,3.4-0.7c1.1,0,2.1,0.2,3,0.6c0.9,0.4,1.7,0.9,2.4,1.6c1.3,1.4,2,3,2,4.8V700.6z"/>
				<path d="M1493,722.7v-31.1h13.3v4.2h-8.8v9.1h7.7v4.2h-7.7v9.1h8.8v4.5H1493z"/>
				<path d="M1524.7,713.8v1.9c0,1-0.2,1.9-0.5,2.7c-0.4,0.9-0.9,1.6-1.5,2.3c-0.6,0.7-1.4,1.2-2.3,1.6c-0.9,0.4-1.8,0.6-2.8,0.6
					c-0.8,0-1.7-0.1-2.6-0.3s-1.7-0.6-2.4-1.2c-0.7-0.6-1.3-1.3-1.7-2.3c-0.5-0.9-0.7-2.1-0.7-3.5v-17.1c0-1,0.2-2,0.5-2.8
					c0.3-0.9,0.8-1.6,1.5-2.3c0.6-0.6,1.4-1.1,2.3-1.5c0.9-0.4,1.9-0.5,3-0.5c2.1,0,3.8,0.7,5.1,2.1c0.6,0.7,1.1,1.5,1.5,2.4
					c0.4,0.9,0.5,1.9,0.5,3v1.7h-4.5V699c0-0.9-0.2-1.6-0.7-2.3c-0.5-0.6-1.2-1-2-1c-1.1,0-1.8,0.3-2.2,1c-0.4,0.7-0.5,1.6-0.5,2.6
					v15.9c0,0.9,0.2,1.7,0.6,2.3s1.1,0.9,2.1,0.9c0.3,0,0.6-0.1,0.9-0.2c0.3-0.1,0.6-0.3,0.9-0.5c0.3-0.2,0.5-0.6,0.7-1
					c0.2-0.4,0.3-0.9,0.3-1.5v-1.5H1524.7z"/>
				<path d="M1532.5,722.7v-26.9h-5.2v-4.2h14.8v4.2h-5.2v26.9H1532.5z"/>
				<path d="M1545.4,722.7v-31.1h13.3v4.2h-8.8v9.1h7.7v4.2h-7.7v9.1h8.8v4.5H1545.4z"/>
				<path d="M1577.3,691.6v24.1c0,1-0.2,2-0.5,2.8c-0.4,0.9-0.9,1.6-1.6,2.3c-0.7,0.7-1.4,1.2-2.3,1.6c-0.9,0.4-1.8,0.6-2.8,0.6
					c-1,0-1.9-0.2-2.8-0.6c-0.9-0.4-1.6-0.9-2.3-1.6c-0.7-0.7-1.2-1.4-1.6-2.3c-0.4-0.9-0.6-1.8-0.6-2.8v-24.1h4.5v23.7
					c0,1.1,0.3,1.9,0.8,2.4c0.5,0.5,1.2,0.8,2,0.8c0.8,0,1.4-0.3,2-0.8c0.5-0.5,0.8-1.3,0.8-2.4v-23.7H1577.3z"/>
				<path d="M1582.8,722.7v-31.1h7.2c5.2,0,7.9,3,7.9,9.1c0,1.8-0.3,3.4-0.9,4.7c-0.6,1.3-1.6,2.3-3,3.1l4.8,14.2h-4.7l-4.2-13.3
					h-2.7v13.3H1582.8z M1587.3,695.8v9.7h2.5c0.8,0,1.4-0.1,1.9-0.3c0.5-0.2,0.8-0.5,1.1-0.9c0.2-0.4,0.4-0.9,0.5-1.5
					s0.1-1.3,0.1-2.1s0-1.5-0.1-2.1s-0.3-1.1-0.5-1.6c-0.6-0.8-1.6-1.2-3.1-1.2H1587.3z"/>
			</g>
			<g>
				<path d="M1482.6,826.2v-78.8l-13.3,9.8V743l13.3-9.8h13.3v92.9H1482.6z"/>
				<path d="M1534.3,826.2v-13.8h-26.5v-12.5l19.2-66.6h14.1l-20,66.6h13.2v-26.5h13.3v26.5h6.4v12.5h-6.4v13.8H1534.3z"/>
				<path d="M1563.5,752.4c0-3.1,0.5-5.9,1.6-8.4c1.1-2.4,2.5-4.5,4.4-6.3c1.8-1.7,3.9-3.1,6.3-4c2.4-0.9,4.9-1.4,7.5-1.4
					s5.1,0.5,7.5,1.4c2.4,0.9,4.5,2.2,6.3,4c1.8,1.7,3.3,3.8,4.4,6.3c1.1,2.4,1.6,5.2,1.6,8.4V807c0,3.1-0.5,5.9-1.6,8.4
					c-1.1,2.4-2.5,4.5-4.4,6.3c-1.8,1.7-3.9,3.1-6.3,4c-2.4,0.9-4.9,1.4-7.5,1.4s-5.1-0.5-7.5-1.4c-2.4-0.9-4.5-2.2-6.3-4
					c-1.8-1.7-3.3-3.8-4.4-6.3c-1.1-2.4-1.6-5.2-1.6-8.4V752.4z M1576.9,807c0,1.9,0.6,3.5,1.8,4.8c1.2,1.3,2.8,1.9,4.7,1.9
					c1.9,0,3.5-0.6,4.7-1.9c1.2-1.3,1.8-2.8,1.8-4.8v-54.6c0-1.9-0.6-3.5-1.8-4.8c-1.2-1.3-2.8-1.9-4.7-1.9c-1.9,0-3.5,0.6-4.7,1.9
					c-1.2,1.3-1.8,2.9-1.8,4.8V807z"/>
			</g>
		</g>
	</g>
	<g>
		<circle class="st4" cx="911.7" cy="1951.6" r="95"/>
		<g>
			<path class="st8" d="M911.7,1881.5c38.5,0,69.8,31.3,69.8,69.8s-31.3,69.8-69.8,69.8s-69.8-31.3-69.8-69.8
				S873.2,1881.5,911.7,1881.5 M911.7,1872.3c-43.6,0-79,35.5-79,79c0,43.6,35.5,79,79,79s79-35.5,79-79
				C990.7,1907.7,955.3,1872.3,911.7,1872.3L911.7,1872.3z"/>
		</g>
		<g>
			<path class="st8" d="M893.9,2007.2v-111.1h23.9c4.4,0,8.2,0.6,11.5,1.7c3.3,1.1,6.3,3.2,9.1,6.1c2.7,2.9,4.6,6.3,5.6,10.2
				c1,3.9,1.6,9.2,1.6,15.8c0,5-0.3,9.2-0.9,12.6c-0.6,3.4-1.8,6.7-3.7,9.7c-2.2,3.6-5.1,6.5-8.7,8.5c-3.6,2-8.4,3-14.4,3h-8.1v43.4
				H893.9z M909.8,1911.1v37.8h7.6c3.2,0,5.7-0.5,7.5-1.4c1.8-0.9,3.1-2.2,3.9-3.9c0.8-1.6,1.3-3.5,1.5-5.8c0.2-2.3,0.2-4.8,0.2-7.6
				c0-2.6-0.1-5.1-0.2-7.4c-0.1-2.3-0.6-4.4-1.4-6.2c-0.8-1.8-2.1-3.1-3.7-4.1c-1.7-0.9-4.1-1.4-7.2-1.4H909.8z"/>
		</g>
		<line class="st9" x1="855.8" y1="1895.7" x2="967.6" y2="2007.5"/>
	</g>
	<g>
		<g>
			<path class="st8" d="M519.2,704.7c30.3,0,55,24.7,55,55s-24.7,55-55,55s-55-24.7-55-55S488.9,704.7,519.2,704.7 M519.2,697.4
				c-34.3,0-62.3,27.9-62.3,62.3s27.9,62.3,62.3,62.3c34.3,0,62.3-27.9,62.3-62.3S553.6,697.4,519.2,697.4L519.2,697.4z"/>
		</g>
		<g>
			<path class="st8" d="M519.2,704.7c30.3,0,55,24.7,55,55s-24.7,55-55,55s-55-24.7-55-55S488.9,704.7,519.2,704.7 M519.2,697.4
				c-34.3,0-62.3,27.9-62.3,62.3s27.9,62.3,62.3,62.3c34.3,0,62.3-27.9,62.3-62.3S553.6,697.4,519.2,697.4L519.2,697.4z"/>
		</g>
		<g>
			<path class="st8" d="M505.2,803.7v-87.6H524c3.4,0,6.5,0.5,9.1,1.4c2.6,0.9,5,2.5,7.1,4.8c2.1,2.3,3.6,5,4.4,8.1
				c0.8,3.1,1.2,7.2,1.2,12.5c0,3.9-0.2,7.3-0.7,10c-0.5,2.7-1.4,5.2-2.9,7.6c-1.7,2.9-4,5.1-6.9,6.7c-2.9,1.6-6.6,2.4-11.3,2.4
				h-6.4v34.2H505.2z M517.7,727.9v29.8h6c2.5,0,4.5-0.4,5.9-1.1c1.4-0.7,2.4-1.8,3.1-3.1c0.7-1.2,1-2.7,1.2-4.6
				c0.1-1.8,0.2-3.8,0.2-6c0-2,0-4-0.1-5.8c-0.1-1.8-0.5-3.5-1.1-4.9c-0.7-1.4-1.6-2.5-3-3.2c-1.3-0.7-3.2-1.1-5.7-1.1H517.7z"/>
		</g>
	</g>
	<g>
		<g>
			<path class="st8" d="M2110.1,704.7c30.3,0,55,24.7,55,55s-24.7,55-55,55s-55-24.7-55-55S2079.8,704.7,2110.1,704.7 M2110.1,697.4
				c-34.3,0-62.3,27.9-62.3,62.3s27.9,62.3,62.3,62.3c34.3,0,62.3-27.9,62.3-62.3S2144.5,697.4,2110.1,697.4L2110.1,697.4z"/>
		</g>
		<g>
			<path class="st8" d="M2110.1,704.7c30.3,0,55,24.7,55,55s-24.7,55-55,55s-55-24.7-55-55S2079.8,704.7,2110.1,704.7 M2110.1,697.4
				c-34.3,0-62.3,27.9-62.3,62.3s27.9,62.3,62.3,62.3c34.3,0,62.3-27.9,62.3-62.3S2144.5,697.4,2110.1,697.4L2110.1,697.4z"/>
		</g>
		<g>
			<path class="st8" d="M2096.1,803.7v-87.6h18.8c3.4,0,6.5,0.5,9.1,1.4c2.6,0.9,5,2.5,7.1,4.8c2.1,2.3,3.6,5,4.4,8.1
				c0.8,3.1,1.2,7.2,1.2,12.5c0,3.9-0.2,7.3-0.7,10c-0.5,2.7-1.4,5.2-2.9,7.6c-1.7,2.9-4,5.1-6.9,6.7c-2.9,1.6-6.6,2.4-11.3,2.4
				h-6.4v34.2H2096.1z M2108.6,727.9v29.8h6c2.5,0,4.5-0.4,5.9-1.1c1.4-0.7,2.4-1.8,3.1-3.1c0.7-1.2,1-2.7,1.2-4.6
				c0.1-1.8,0.2-3.8,0.2-6c0-2,0-4-0.1-5.8c-0.1-1.8-0.5-3.5-1.1-4.9c-0.7-1.4-1.6-2.5-3-3.2c-1.3-0.7-3.2-1.1-5.7-1.1H2108.6z"/>
		</g>
	</g>
	<g>
		<g>
			<line class="st5" x1="403.2" y1="1119.8" x2="254.2" y2="1119.8"/>
			<g>
				<polygon points="270.3,1239.9 270.3,999.7 150.2,1119.8 				"/>
			</g>
		</g>
	</g>
	<line class="st5" x1="2466.7" y1="1119.8" x2="2226.2" y2="1119.8"/>
	<g>
		
			<pattern  id="SVGID_00000082343136168741615810000009907731091809729175_" xlink:href="#New_Pattern_2" patternTransform="matrix(2.197 0 0 2.197 13706.376 6907.1235)">
		</pattern>
		
			<rect x="439.8" y="1000.7" style="fill:url(#SVGID_00000082343136168741615810000009907731091809729175_);" width="158.9" height="238.1"/>
		<path class="st4" d="M593.2,1006.2v227.1H445.3v-227.1H593.2 M604.2,995.2H434.3v249.1h169.8V995.2L604.2,995.2z"/>
	</g>
	<rect x="666.4" y="995.2" class="st6" width="1296.5" height="249.1"/>
	<rect x="1218.6" y="1826.1" class="st6" width="1260.6" height="249.1"/>
	<g>
		<circle class="st4" cx="519.2" cy="1119.8" r="75.8"/>
		<g>
			<path class="st8" d="M519.2,1063.8c30.7,0,55.7,25,55.7,55.7c0,30.7-25,55.7-55.7,55.7s-55.7-25-55.7-55.7
				C463.5,1088.8,488.5,1063.8,519.2,1063.8 M519.2,1056.4c-34.8,0-63.1,28.3-63.1,63.1s28.3,63.1,63.1,63.1s63.1-28.3,63.1-63.1
				S554,1056.4,519.2,1056.4L519.2,1056.4z"/>
		</g>
		<g>
			<path class="st8" d="M505,1164.1v-88.7h19.1c3.5,0,6.6,0.5,9.2,1.4c2.7,0.9,5.1,2.5,7.2,4.9c2.2,2.3,3.7,5,4.5,8.2
				s1.2,7.3,1.2,12.6c0,4-0.2,7.4-0.7,10.1c-0.5,2.7-1.4,5.3-2.9,7.7c-1.7,2.9-4.1,5.2-7,6.8c-2.9,1.6-6.7,2.4-11.5,2.4h-6.5v34.6
				H505z M517.7,1087.4v30.2h6.1c2.6,0,4.6-0.4,6-1.1c1.4-0.7,2.4-1.8,3.1-3.1c0.7-1.2,1.1-2.8,1.2-4.6c0.1-1.8,0.2-3.9,0.2-6.1
				c0-2.1,0-4-0.1-5.9c-0.1-1.9-0.5-3.5-1.1-4.9c-0.7-1.4-1.7-2.5-3-3.2c-1.3-0.7-3.2-1.1-5.7-1.1H517.7z"/>
		</g>
		<line class="st11" x1="474.6" y1="1075.2" x2="563.8" y2="1164.4"/>
	</g>
	<g>
		
			<pattern  id="SVGID_00000167354185389049330200000008644858985777535404_" xlink:href="#New_Pattern_2" patternTransform="matrix(2.197 0 0 2.197 13908.4941 6907.1235)">
		</pattern>
		
			<rect x="2030.7" y="1000.7" style="fill:url(#SVGID_00000167354185389049330200000008644858985777535404_);" width="158.9" height="238.1"/>
		<path class="st4" d="M2184.1,1006.2v227.1h-147.9v-227.1H2184.1 M2195.1,995.2h-169.8v249.1h169.8V995.2L2195.1,995.2z"/>
	</g>
	<g>
		<circle class="st4" cx="2110.1" cy="1119.8" r="75.8"/>
		<g>
			<path class="st8" d="M2110.1,1063.8c30.7,0,55.7,25,55.7,55.7c0,30.7-25,55.7-55.7,55.7s-55.7-25-55.7-55.7
				C2054.4,1088.8,2079.4,1063.8,2110.1,1063.8 M2110.1,1056.4c-34.8,0-63.1,28.3-63.1,63.1s28.3,63.1,63.1,63.1
				s63.1-28.3,63.1-63.1S2144.9,1056.4,2110.1,1056.4L2110.1,1056.4z"/>
		</g>
		<g>
			<path class="st8" d="M2095.9,1164.1v-88.7h19.1c3.5,0,6.6,0.5,9.2,1.4c2.7,0.9,5.1,2.5,7.2,4.9c2.2,2.3,3.7,5,4.5,8.2
				s1.2,7.3,1.2,12.6c0,4-0.2,7.4-0.7,10.1c-0.5,2.7-1.4,5.3-2.9,7.7c-1.7,2.9-4.1,5.2-7,6.8c-2.9,1.6-6.7,2.4-11.5,2.4h-6.5v34.6
				H2095.9z M2108.6,1087.4v30.2h6.1c2.6,0,4.6-0.4,6-1.1c1.4-0.7,2.4-1.8,3.1-3.1c0.7-1.2,1.1-2.8,1.2-4.6c0.1-1.8,0.2-3.9,0.2-6.1
				c0-2.1,0-4-0.1-5.9c-0.1-1.9-0.5-3.5-1.1-4.9c-0.7-1.4-1.7-2.5-3-3.2c-1.3-0.7-3.2-1.1-5.7-1.1H2108.6z"/>
		</g>
		<line class="st11" x1="2065.5" y1="1075.2" x2="2154.7" y2="1164.4"/>
	</g>
	<g>
		<g>
			<g>
				<path class="st8" d="M1240.1,1049.7c38.5,0,69.8,31.3,69.8,69.8s-31.3,69.8-69.8,69.8s-69.8-31.3-69.8-69.8
					S1201.6,1049.7,1240.1,1049.7 M1240.1,1040.4c-43.6,0-79,35.5-79,79c0,43.6,35.5,79,79,79s79-35.5,79-79
					C1319.1,1075.9,1283.7,1040.4,1240.1,1040.4L1240.1,1040.4z"/>
			</g>
			<g>
				<path class="st8" d="M1222.3,1175.4v-111.1h23.9c4.4,0,8.2,0.6,11.5,1.7c3.3,1.1,6.3,3.2,9.1,6.1c2.7,2.9,4.6,6.3,5.6,10.2
					c1,3.9,1.6,9.2,1.6,15.8c0,5-0.3,9.2-0.9,12.6c-0.6,3.4-1.8,6.7-3.7,9.7c-2.2,3.6-5.1,6.5-8.7,8.5s-8.4,3-14.4,3h-8.1v43.4
					H1222.3z M1238.2,1079.2v37.8h7.6c3.2,0,5.7-0.5,7.5-1.4c1.8-0.9,3.1-2.2,3.9-3.9c0.8-1.6,1.3-3.5,1.5-5.8
					c0.2-2.3,0.2-4.8,0.2-7.6c0-2.6-0.1-5.1-0.2-7.4c-0.1-2.3-0.6-4.4-1.4-6.2c-0.8-1.8-2.1-3.1-3.7-4.1c-1.7-0.9-4.1-1.4-7.2-1.4
					H1238.2z"/>
			</g>
		</g>
		<g>
			<path class="st8" d="M1345.8,1175.7v-14.9l28.6-54c1.5-2.7,2.3-5.1,2.5-7.1c0.2-2,0.3-4.5,0.3-7.5c0-1.3,0-2.8-0.1-4.3
				c-0.1-1.5-0.3-2.8-0.9-4c-0.5-1.1-1.3-2.1-2.3-2.9c-1-0.8-2.5-1.2-4.5-1.2c-2.4,0-4.3,0.7-5.7,2c-1.4,1.3-2.1,3.3-2.1,5.9v9
				h-15.9v-8.7c0-3.3,0.6-6.4,1.9-9.3s3-5.4,5.1-7.6c2.1-2.2,4.6-3.9,7.5-5.2c2.9-1.3,6-1.9,9.3-1.9c4.1,0,7.7,0.8,10.7,2.3
				c3,1.5,5.4,3.6,7.4,6.1c1.9,2.6,3.2,5.6,4.1,8.9c0.9,3.3,1.3,6.8,1.3,10.6c0,2.7-0.1,5-0.2,6.8c-0.1,1.8-0.3,3.6-0.6,5.2
				c-0.3,1.7-0.8,3.3-1.6,5c-0.7,1.7-1.7,3.7-3,6.1l-23.3,45h28.6v15.9H1345.8z"/>
			<path class="st8" d="M1409.6,1175.7v-110.8h15.9v39.5h0.3c1.7-2.5,3.7-4.5,6-6.1c2.3-1.6,5.3-2.4,8.9-2.4c2,0,3.9,0.3,5.9,1
				c2,0.7,3.7,1.8,5.3,3.3c1.6,1.6,2.8,3.6,3.7,6c0.9,2.4,1.4,5.4,1.4,8.9v60.5h-15.9v-54.6c0-2.9-0.7-5.2-2-6.8
				c-1.3-1.7-3.3-2.5-5.8-2.5c-3,0-5.1,0.9-6.2,2.8c-1.1,1.9-1.7,4.6-1.7,8.1v53.1H1409.6z"/>
		</g>
	</g>
	<rect x="150.2" y="1827.1" class="st6" width="454" height="249.1"/>
	<g>
		<g>
			<path class="st8" d="M377.2,1896.6c30.3,0,55,24.7,55,55c0,30.3-24.7,55-55,55s-55-24.7-55-55
				C322.2,1921.3,346.9,1896.6,377.2,1896.6 M377.2,1889.4c-34.3,0-62.3,27.9-62.3,62.3c0,34.3,27.9,62.3,62.3,62.3
				c34.3,0,62.3-27.9,62.3-62.3C439.5,1917.3,411.5,1889.4,377.2,1889.4L377.2,1889.4z"/>
		</g>
		<g>
			<path class="st8" d="M377.2,1896.6c30.3,0,55,24.7,55,55c0,30.3-24.7,55-55,55s-55-24.7-55-55
				C322.2,1921.3,346.9,1896.6,377.2,1896.6 M377.2,1889.4c-34.3,0-62.3,27.9-62.3,62.3c0,34.3,27.9,62.3,62.3,62.3
				c34.3,0,62.3-27.9,62.3-62.3C439.5,1917.3,411.5,1889.4,377.2,1889.4L377.2,1889.4z"/>
		</g>
		<g>
			<path class="st8" d="M363.1,1995.7v-87.6h18.8c3.4,0,6.5,0.5,9.1,1.4c2.6,0.9,5,2.5,7.1,4.8c2.1,2.3,3.6,5,4.4,8.1
				c0.8,3.1,1.2,7.2,1.2,12.5c0,3.9-0.2,7.3-0.7,10c-0.5,2.7-1.4,5.2-2.9,7.6c-1.7,2.9-4,5.1-6.9,6.7c-2.9,1.6-6.6,2.4-11.3,2.4
				h-6.4v34.2H363.1z M375.7,1919.9v29.8h6c2.5,0,4.5-0.4,5.9-1.1c1.4-0.7,2.4-1.8,3.1-3.1c0.7-1.2,1-2.7,1.2-4.6
				c0.1-1.8,0.2-3.8,0.2-6c0-2,0-4-0.1-5.8c-0.1-1.8-0.5-3.5-1.1-4.9c-0.7-1.4-1.6-2.5-3-3.2c-1.3-0.7-3.2-1.1-5.7-1.1H375.7z"/>
		</g>
	</g>
	<g>
		<g>
			<path class="st8" d="M1876.9,1896.6c30.3,0,55,24.7,55,55c0,30.3-24.7,55-55,55s-55-24.7-55-55
				C1821.9,1921.3,1846.6,1896.6,1876.9,1896.6 M1876.9,1889.4c-34.3,0-62.3,27.9-62.3,62.3c0,34.3,27.9,62.3,62.3,62.3
				c34.3,0,62.3-27.9,62.3-62.3C1939.2,1917.3,1911.3,1889.4,1876.9,1889.4L1876.9,1889.4z"/>
		</g>
		<g>
			<path class="st8" d="M1876.9,1896.6c30.3,0,55,24.7,55,55c0,30.3-24.7,55-55,55s-55-24.7-55-55
				C1821.9,1921.3,1846.6,1896.6,1876.9,1896.6 M1876.9,1889.4c-34.3,0-62.3,27.9-62.3,62.3c0,34.3,27.9,62.3,62.3,62.3
				c34.3,0,62.3-27.9,62.3-62.3C1939.2,1917.3,1911.3,1889.4,1876.9,1889.4L1876.9,1889.4z"/>
		</g>
		<g>
			<path class="st8" d="M1862.9,1995.7v-87.6h18.8c3.4,0,6.5,0.5,9.1,1.4c2.6,0.9,5,2.5,7.1,4.8c2.1,2.3,3.6,5,4.4,8.1
				c0.8,3.1,1.2,7.2,1.2,12.5c0,3.9-0.2,7.3-0.7,10c-0.5,2.7-1.4,5.2-2.9,7.6c-1.7,2.9-4,5.1-6.9,6.7c-2.9,1.6-6.6,2.4-11.3,2.4
				h-6.4v34.2H1862.9z M1875.4,1919.9v29.8h6c2.5,0,4.5-0.4,5.9-1.1c1.4-0.7,2.4-1.8,3.1-3.1c0.7-1.2,1-2.7,1.2-4.6
				c0.1-1.8,0.2-3.8,0.2-6c0-2,0-4-0.1-5.8c-0.1-1.8-0.5-3.5-1.1-4.9c-0.7-1.4-1.6-2.5-3-3.2c-1.3-0.7-3.2-1.1-5.7-1.1H1875.4z"/>
		</g>
	</g>
</g>
<g id="Text">
	<g>
		<path class="st8" d="M201.5,287.2V130.8h22.4v67h27.7v-67H274v156.4h-22.4v-69.6h-27.7v69.6H201.5z"/>
		<path class="st8" d="M305.8,167.7c0-6.3,1.1-11.9,3.3-16.7c2.2-4.8,5.1-8.9,8.8-12.1c3.5-3.1,7.5-5.4,12-7c4.5-1.6,9-2.4,13.5-2.4
			c4.5,0,9,0.8,13.5,2.4c4.5,1.6,8.5,4,12.2,7c3.5,3.2,6.4,7.2,8.6,12.1c2.2,4.8,3.3,10.4,3.3,16.7v82.6c0,6.6-1.1,12.2-3.3,16.9
			c-2.2,4.7-5.1,8.6-8.6,11.6c-3.7,3.2-7.7,5.6-12.2,7.2c-4.5,1.6-9,2.4-13.5,2.4c-4.5,0-9-0.8-13.5-2.4c-4.5-1.6-8.5-4-12-7.2
			c-3.7-3.1-6.6-7-8.8-11.6c-2.2-4.7-3.3-10.3-3.3-16.9V167.7z M328.2,250.3c0,5.4,1.5,9.4,4.5,12c3,2.6,6.6,3.8,10.7,3.8
			c4.1,0,7.7-1.3,10.7-3.8c3-2.6,4.5-6.6,4.5-12v-82.6c0-5.4-1.5-9.4-4.5-12c-3-2.6-6.6-3.8-10.7-3.8c-4.1,0-7.7,1.3-10.7,3.8
			c-3,2.6-4.5,6.6-4.5,12V250.3z"/>
		<path class="st8" d="M412.8,287.2V130.8h36c26.4,0,39.5,15.3,39.5,45.9c0,9.2-1.4,17.1-4.3,23.5c-2.9,6.4-7.9,11.6-15,15.6
			l24.2,71.4h-23.7l-20.9-66.8h-13.4v66.8H412.8z M435.2,151.9v48.8H448c4,0,7.1-0.5,9.4-1.6c2.3-1.1,4.2-2.7,5.5-4.7
			c1.2-2,2-4.6,2.4-7.6c0.4-3,0.7-6.5,0.7-10.4s-0.2-7.4-0.7-10.4c-0.4-3-1.3-5.6-2.6-7.8c-2.8-4.1-8.1-6.2-15.8-6.2H435.2z"/>
		<path class="st8" d="M508.4,287.2l34.9-156.4H562l34.9,156.4h-22.4l-6.6-33.6h-30.5l-6.6,33.6H508.4z M563.8,232.5l-11-56.7h-0.4
			l-11,56.7H563.8z"/>
		<path class="st8" d="M620.7,287.2V130.8h22.4v156.4H620.7z"/>
		<path class="st8" d="M676.9,287.2V130.8h36c26.4,0,39.5,15.3,39.5,45.9c0,9.2-1.4,17.1-4.3,23.5c-2.9,6.4-7.9,11.6-15,15.6
			l24.2,71.4h-23.7l-20.9-66.8h-13.4v66.8H676.9z M699.3,151.9v48.8h12.7c4,0,7.1-0.5,9.4-1.6c2.3-1.1,4.2-2.7,5.5-4.7
			c1.2-2,2-4.6,2.4-7.6c0.4-3,0.7-6.5,0.7-10.4s-0.2-7.4-0.7-10.4c-0.4-3-1.3-5.6-2.6-7.8c-2.8-4.1-8.1-6.2-15.8-6.2H699.3z"/>
		<path class="st8" d="M782.6,287.2V130.8h66.8v21.1H805v45.9h38.7v21.1H805v45.9h44.4v22.4H782.6z"/>
		<path class="st8" d="M945.4,287.2V130.8h33.2c12.9,0,22.7,3.5,29.3,10.5c6.7,7,10,17,10,29.9v73.2c0,14.6-3.6,25.5-10.7,32.4
			c-7.1,7-17.3,10.4-30.6,10.4H945.4z M967.8,151.9v114.2h10.3c6.3,0,10.8-1.6,13.4-4.7c2.6-3.1,4-8.1,4-14.8v-75.4
			c0-6.2-1.2-10.9-3.7-14.3c-2.5-3.4-7-5.1-13.6-5.1H967.8z"/>
		<path class="st8" d="M1051.1,287.2V130.8h66.8v21.1h-44.4v45.9h38.7v21.1h-38.7v45.9h44.4v22.4H1051.1z"/>
		<path class="st8" d="M1280.9,175.8h-22.4v-5.1c0-5.1-1.2-9.6-3.6-13.3s-6.5-5.6-12.2-5.6c-3.1,0-5.6,0.6-7.5,1.8
			c-1.9,1.2-3.4,2.6-4.6,4.4c-1.2,1.9-2,4.1-2.4,6.5c-0.4,2.4-0.7,4.9-0.7,7.6c0,3.1,0.1,5.6,0.3,7.7c0.2,2.1,0.8,3.9,1.6,5.5
			c0.9,1.6,2.2,3,3.8,4.2c1.7,1.2,4,2.3,6.9,3.5l17.1,6.8c5,1.9,9,4.1,12.1,6.7c3.1,2.6,5.5,5.5,7.3,8.9c1.6,3.5,2.7,7.5,3.3,12
			c0.6,4.5,0.9,9.6,0.9,15.3c0,6.6-0.7,12.7-2,18.3c-1.3,5.6-3.4,10.4-6.4,14.4c-3.1,4.1-7.1,7.3-12.1,9.7c-5,2.3-11.1,3.5-18.2,3.5
			c-5.4,0-10.5-1-15.2-2.9c-4.7-1.9-8.7-4.5-12.1-7.9c-3.4-3.4-6-7.3-8-11.8c-2-4.5-3-9.3-3-14.6V243h22.4v7c0,4.1,1.2,7.8,3.6,11.1
			c2.4,3.3,6.5,4.9,12.2,4.9c3.8,0,6.8-0.5,8.9-1.6c2.1-1.1,3.8-2.7,4.9-4.7c1.2-2,1.9-4.5,2.1-7.4c0.2-2.9,0.3-6,0.3-9.6
			c0-4.1-0.1-7.5-0.4-10.1c-0.3-2.6-0.9-4.8-1.8-6.4c-1-1.6-2.4-2.9-4.1-4c-1.7-1-3.9-2.1-6.7-3.3l-16-6.6
			c-9.7-4-16.1-9.2-19.4-15.7c-3.3-6.5-4.9-14.7-4.9-24.5c0-5.9,0.8-11.4,2.4-16.7c1.6-5.3,4-9.8,7.2-13.6c3.1-3.8,7-6.8,11.8-9.1
			c4.8-2.3,10.4-3.4,17-3.4c5.6,0,10.7,1,15.3,3.1c4.6,2.1,8.6,4.8,12,8.1c6.7,7,10.1,15.1,10.1,24.2V175.8z"/>
		<path class="st8" d="M1324.4,287.2V151.9h-25.9v-21.1h74.3v21.1h-25.9v135.3H1324.4z"/>
		<path class="st8" d="M1372.5,287.2l34.9-156.4h18.7l34.9,156.4h-22.4l-6.6-33.6h-30.5l-6.6,33.6H1372.5z M1427.8,232.5l-11-56.7
			h-0.4l-11,56.7H1427.8z"/>
		<path class="st8" d="M1486.7,287.2V151.9h-25.9v-21.1h74.3v21.1h-25.9v135.3H1486.7z"/>
		<path class="st8" d="M1557.7,287.2V130.8h22.4v156.4H1557.7z"/>
		<path class="st8" d="M1612.6,167.7c0-6.3,1.1-11.9,3.3-16.7c2.2-4.8,5.1-8.9,8.8-12.1c3.5-3.1,7.5-5.4,12-7
			c4.5-1.6,9-2.4,13.5-2.4c4.5,0,9,0.8,13.5,2.4c4.5,1.6,8.5,4,12.2,7c3.5,3.2,6.4,7.2,8.6,12.1c2.2,4.8,3.3,10.4,3.3,16.7v82.6
			c0,6.6-1.1,12.2-3.3,16.9c-2.2,4.7-5.1,8.6-8.6,11.6c-3.7,3.2-7.7,5.6-12.2,7.2c-4.5,1.6-9,2.4-13.5,2.4c-4.5,0-9-0.8-13.5-2.4
			c-4.5-1.6-8.5-4-12-7.2c-3.7-3.1-6.6-7-8.8-11.6c-2.2-4.7-3.3-10.3-3.3-16.9V167.7z M1635,250.3c0,5.4,1.5,9.4,4.5,12
			c3,2.6,6.6,3.8,10.7,3.8c4.1,0,7.7-1.3,10.7-3.8c3-2.6,4.5-6.6,4.5-12v-82.6c0-5.4-1.5-9.4-4.5-12c-3-2.6-6.6-3.8-10.7-3.8
			c-4.1,0-7.7,1.3-10.7,3.8c-3,2.6-4.5,6.6-4.5,12V250.3z"/>
		<path class="st8" d="M1718.7,287.2V130.8h21.5l33.8,94.3h0.4v-94.3h22.4v156.4h-21.1l-34.3-94h-0.4v94H1718.7z"/>
		<path class="st8" d="M1828.3,287.2V130.8h21.5l33.8,94.3h0.4v-94.3h22.4v156.4h-21.1l-34.3-94h-0.4v94H1828.3z"/>
		<path class="st8" d="M1938.8,287.2V130.8h66.8v21.1h-44.4v45.9h38.7v21.1h-38.7v45.9h44.4v22.4H1938.8z"/>
		<path class="st8" d="M2032.2,287.2V130.8h21.5l28.8,82.8h0.4l28.6-82.8h21.8v156.4h-22.4v-95.1h-0.4l-22.2,67.2H2077l-22-67.2
			h-0.4v95.1H2032.2z"/>
		<path class="st8" d="M2166.5,287.2V130.8h66.8v21.1h-44.4v45.9h38.7v21.1h-38.7v45.9h44.4v22.4H2166.5z"/>
		<path class="st8" d="M2258.9,287.2V130.8h21.5l33.8,94.3h0.4v-94.3h22.4v156.4h-21.1l-34.3-94h-0.4v94H2258.9z"/>
		<path class="st8" d="M2384.2,287.2V151.9h-25.9v-21.1h74.3v21.1h-25.9v135.3H2384.2z"/>
	</g>
	<g>
		<path d="M779.7,554.2V429.1h17.9v107.2h35.5v17.9H779.7z"/>
		<path d="M908,429.1v97c0,4.1-0.7,7.9-2.2,11.3c-1.5,3.5-3.5,6.5-6.2,9.2c-2.7,2.7-5.8,4.8-9.3,6.3s-7.3,2.3-11.2,2.3
			c-4,0-7.7-0.8-11.2-2.3c-3.5-1.5-6.5-3.6-9.2-6.3c-2.7-2.7-4.8-5.8-6.3-9.2c-1.5-3.5-2.3-7.2-2.3-11.3v-97h17.9v95.3
			c0,4.5,1.1,7.7,3.2,9.8c2.1,2.1,4.7,3.2,7.9,3.2s5.8-1.1,7.9-3.2c2.1-2.1,3.2-5.4,3.2-9.8v-95.3H908z"/>
		<path d="M929.4,554.2V429.1h17.2l27.1,75.4h0.4v-75.4H992v125.1h-16.9L947.7,479h-0.4v75.2H929.4z"/>
		<path d="M1013.4,554.2V429.1h26.5c10.3,0,18.1,2.8,23.5,8.4c5.3,5.6,8,13.6,8,23.9V520c0,11.7-2.8,20.4-8.5,25.9
			c-5.7,5.6-13.9,8.3-24.5,8.3H1013.4z M1031.4,446v91.4h8.3c5,0,8.6-1.3,10.7-3.8c2.1-2.5,3.2-6.5,3.2-11.9v-60.3
			c0-4.9-1-8.7-3-11.4c-2-2.7-5.6-4-10.9-4H1031.4z"/>
		<path d="M1094.1,554.2V429.1h17.9v125.1H1094.1z"/>
		<path d="M1172,514.5v-17.9h52.9v17.9H1172z"/>
		<path d="M1345.1,429.1l-25.7,125.1h-15.8l-25.5-125.1h19l14.2,87.4h0.4l14.4-87.4H1345.1z"/>
		<path d="M1361.1,554.2V429.1h53.4V446H1379v36.7h30.9v16.9H1379v36.7h35.5v17.9H1361.1z"/>
		<path d="M1430.7,554.2V429.1h17.2l27.1,75.4h0.4v-75.4h17.9v125.1h-16.9L1449,479h-0.4v75.2H1430.7z"/>
		<path d="M1514.7,554.2V429.1h26.5c10.3,0,18.1,2.8,23.5,8.4c5.3,5.6,8,13.6,8,23.9V520c0,11.7-2.8,20.4-8.5,25.9
			c-5.7,5.6-13.9,8.3-24.5,8.3H1514.7z M1532.6,446v91.4h8.3c5,0,8.6-1.3,10.7-3.8c2.1-2.5,3.2-6.5,3.2-11.9v-60.3
			c0-4.9-1-8.7-3-11.4c-2-2.7-5.6-4-10.9-4H1532.6z"/>
		<path d="M1594.8,554.2V429.1h28.8c21.1,0,31.6,12.2,31.6,36.7c0,7.4-1.1,13.7-3.4,18.8c-2.3,5.2-6.3,9.3-12,12.5l19.3,57.1h-19
			l-16.7-53.4h-10.7v53.4H1594.8z M1612.8,446v39h10.2c3.2,0,5.7-0.4,7.6-1.3c1.9-0.9,3.3-2.1,4.4-3.8c0.9-1.6,1.6-3.7,1.9-6.1
			c0.4-2.4,0.5-5.2,0.5-8.3s-0.2-5.9-0.5-8.3c-0.4-2.4-1.1-4.5-2.1-6.2c-2.2-3.3-6.4-4.9-12.7-4.9H1612.8z"/>
		<path d="M1675,554.2V429.1h53.4V446h-35.5v36.7h30.9v16.9h-30.9v36.7h35.5v17.9H1675z"/>
		<path d="M1745.3,554.2V429.1h26.5c10.3,0,18.1,2.8,23.5,8.4c5.3,5.6,8,13.6,8,23.9V520c0,11.7-2.8,20.4-8.5,25.9
			c-5.7,5.6-13.9,8.3-24.5,8.3H1745.3z M1763.2,446v91.4h8.3c5,0,8.6-1.3,10.7-3.8c2.1-2.5,3.2-6.5,3.2-11.9v-60.3
			c0-4.9-1-8.7-3-11.4c-2-2.7-5.6-4-10.9-4H1763.2z"/>
		<path d="M1826,554.2V429.1h17.9v125.1H1826z"/>
	</g>
	<g>
		<path d="M1788.4,1433.3v-106.2l-17.9,13.2v-19l17.9-13.2h17.9v125.1H1788.4z"/>
		<path d="M1828.7,1433.3l31.5-108.3h-19.7v14.4h-15.8v-31.3h53.4v17.9l-30.4,107.2H1828.7z"/>
		<path d="M1896.7,1433.3v-125.1h17.9v44.6h0.4c1.9-2.8,4.1-5.1,6.8-6.9c2.6-1.8,6-2.7,10.1-2.7c2.2,0,4.5,0.4,6.7,1.1
			c2.2,0.8,4.2,2,6,3.8c1.8,1.8,3.2,4,4.2,6.8c1.1,2.8,1.6,6.1,1.6,10.1v68.4h-17.9v-61.7c0-3.3-0.8-5.9-2.3-7.7
			c-1.5-1.9-3.7-2.8-6.5-2.8c-3.4,0-5.7,1.1-7,3.2c-1.3,2.1-1.9,5.2-1.9,9.1v59.9H1896.7z"/>
	</g>
	<g>
		<path d="M672.4,1340.9c0-3.4,0.1-6.3,0.4-8.7c0.2-2.4,0.6-4.5,1.2-6.2c0.6-1.8,1.3-3.3,2-4.7c0.8-1.4,1.7-2.9,2.9-4.4
			c2.3-3,5.3-5.4,8.8-7.1c3.5-1.7,7.3-2.5,11.4-2.5c4.1,0,7.9,0.9,11.4,2.5c3.5,1.7,6.4,4.1,8.8,7.1c1.2,1.5,2.2,3,3,4.4
			c0.8,1.4,1.5,3,2.1,4.7c0.6,1.8,1,3.8,1.1,6.2c0.2,2.4,0.3,5.3,0.3,8.7c0,3.8-0.1,6.9-0.2,9.5c-0.1,2.6-0.5,4.9-1.1,6.9
			c-0.6,2-1.5,3.8-2.7,5.4c-1.2,1.6-2.9,3.2-5,5c2.1,1.6,3.8,3.3,5,4.9c1.2,1.6,2.1,3.6,2.7,5.8c0.6,2.2,0.9,5,1.1,8.2
			c0.1,3.2,0.2,7.2,0.2,11.9c0,3.9-0.1,7.1-0.3,9.6c-0.2,2.5-0.4,4.7-0.8,6.6c-0.4,1.9-0.9,3.5-1.5,4.7c-0.6,1.3-1.4,2.6-2.4,4
			c-2,3-4.8,5.7-8.4,7.8c-3.6,2.2-8.1,3.3-13.4,3.3s-9.7-1.1-13.4-3.3c-3.6-2.2-6.4-4.8-8.4-7.8c-0.9-1.4-1.7-2.8-2.4-4
			c-0.6-1.3-1.1-2.9-1.5-4.7c-0.4-1.9-0.6-4.1-0.8-6.6c-0.2-2.5-0.3-5.7-0.3-9.6c0-4.7,0.1-8.6,0.2-11.9c0.1-3.2,0.5-5.9,1.1-8.2
			c0.6-2.2,1.5-4.2,2.7-5.8c1.2-1.6,2.9-3.3,5-4.9c-2.1-1.8-3.8-3.4-5-5c-1.2-1.6-2.1-3.4-2.7-5.4c-0.6-2-0.9-4.3-1.1-6.9
			C672.5,1347.8,672.4,1344.6,672.4,1340.9z M707.9,1333.8c0-2.5-0.9-4.5-2.6-6.2c-1.8-1.7-3.8-2.5-6.2-2.5c-2.3,0-4.4,0.9-6.2,2.5
			c-1.8,1.7-2.6,3.8-2.6,6.2v18.3c0,2.5,0.9,4.5,2.6,6.2c1.8,1.7,3.8,2.5,6.2,2.5c2.3,0,4.4-0.8,6.2-2.5c1.8-1.7,2.6-3.8,2.6-6.2
			V1333.8z M707.9,1383.1c0-2.5-0.9-4.5-2.6-6.2c-1.8-1.7-3.8-2.5-6.2-2.5c-2.3,0-4.4,0.9-6.2,2.5c-1.8,1.7-2.6,3.8-2.6,6.2v24.6
			c0,2.5,0.9,4.5,2.6,6.2c1.8,1.7,3.8,2.5,6.2,2.5c2.3,0,4.4-0.8,6.2-2.5c1.8-1.7,2.6-3.8,2.6-6.2V1383.1z"/>
		<path d="M744.5,1433.3v-125.1h17.9v44.6h0.4c1.9-2.8,4.1-5.1,6.8-6.9s6-2.7,10.1-2.7c2.2,0,4.5,0.4,6.7,1.1c2.2,0.8,4.2,2,6,3.8
			c1.8,1.8,3.2,4,4.2,6.8c1.1,2.8,1.6,6.1,1.6,10.1v68.4h-17.9v-61.7c0-3.3-0.8-5.9-2.3-7.7c-1.5-1.9-3.7-2.8-6.5-2.8
			c-3.4,0-5.7,1.1-7,3.2c-1.3,2.1-1.9,5.2-1.9,9.1v59.9H744.5z"/>
	</g>
	<g>
		<path d="M614.5,1745.5v-125.1h17.2l23,66.3h0.4l22.8-66.3h17.4v125.1h-17.9v-76.1H677l-17.8,53.8h-9l-17.6-53.8h-0.4v76.1H614.5z"
			/>
		<path d="M717.5,1745.5v-125.1h53.4v16.9h-35.5v36.7h30.9v16.9h-30.9v36.7h35.5v17.9H717.5z"/>
		<path d="M787.8,1745.5v-125.1h28.8c21.1,0,31.6,12.2,31.6,36.7c0,7.4-1.1,13.7-3.4,18.8c-2.3,5.2-6.3,9.3-12,12.5l19.3,57.1h-19
			l-16.7-53.4h-10.7v53.4H787.8z M805.7,1637.2v39h10.2c3.2,0,5.7-0.4,7.6-1.3c1.9-0.9,3.3-2.1,4.4-3.8c0.9-1.6,1.6-3.7,1.9-6.1
			c0.4-2.4,0.5-5.2,0.5-8.3s-0.2-5.9-0.5-8.3c-0.4-2.4-1.1-4.5-2.1-6.2c-2.2-3.3-6.4-4.9-12.7-4.9H805.7z"/>
		<path d="M924.9,1709.8v7.7c0,3.9-0.7,7.5-2.2,11c-1.5,3.5-3.5,6.5-6.1,9.2c-2.6,2.7-5.6,4.8-9.1,6.4c-3.5,1.6-7.2,2.4-11.2,2.4
			c-3.4,0-6.9-0.5-10.4-1.4c-3.5-0.9-6.7-2.6-9.5-4.9c-2.8-2.3-5.1-5.4-6.9-9.1c-1.8-3.7-2.7-8.4-2.7-14.1v-68.9
			c0-4.1,0.7-7.9,2.1-11.4c1.4-3.5,3.4-6.6,6-9.1c2.6-2.6,5.7-4.6,9.2-6.1c3.6-1.5,7.5-2.2,11.9-2.2c8.4,0,15.3,2.8,20.6,8.3
			c2.6,2.7,4.6,5.9,6.1,9.6c1.5,3.7,2.2,7.7,2.2,12v7h-17.9v-6c0-3.5-1-6.6-3-9.1c-2-2.6-4.7-3.9-8.1-3.9c-4.5,0-7.4,1.4-8.9,4.1
			c-1.5,2.8-2.2,6.2-2.2,10.5v64c0,3.6,0.8,6.7,2.4,9.1c1.6,2.5,4.4,3.7,8.5,3.7c1.2,0,2.4-0.2,3.8-0.6c1.3-0.4,2.6-1.1,3.8-2
			c1.1-0.9,1.9-2.2,2.6-3.9c0.7-1.6,1.1-3.7,1.1-6.2v-6.2H924.9z"/>
		<path d="M944.7,1745.5v-125.1h28.8c21.1,0,31.6,12.2,31.6,36.7c0,7.4-1.1,13.7-3.4,18.8c-2.3,5.2-6.3,9.3-12,12.5l19.3,57.1h-19
			l-16.7-53.4h-10.7v53.4H944.7z M962.6,1637.2v39h10.2c3.2,0,5.7-0.4,7.6-1.3c1.9-0.9,3.3-2.1,4.4-3.8c0.9-1.6,1.6-3.7,1.9-6.1
			c0.4-2.4,0.5-5.2,0.5-8.3s-0.2-5.9-0.5-8.3c-0.4-2.4-1.1-4.5-2.1-6.2c-2.2-3.3-6.4-4.9-12.7-4.9H962.6z"/>
		<path d="M1024.9,1745.5v-125.1h53.4v16.9h-35.5v36.7h30.9v16.9h-30.9v36.7h35.5v17.9H1024.9z"/>
		<path d="M1095.2,1745.5v-125.1h26.5c10.3,0,18.1,2.8,23.5,8.4c5.3,5.6,8,13.6,8,23.9v58.5c0,11.7-2.8,20.4-8.5,25.9
			c-5.7,5.6-13.9,8.3-24.5,8.3H1095.2z M1113.1,1637.2v91.4h8.3c5,0,8.6-1.3,10.7-3.8c2.1-2.5,3.2-6.5,3.2-11.9v-60.3
			c0-4.9-1-8.7-3-11.4c-2-2.7-5.6-4-10.9-4H1113.1z"/>
		<path d="M1175.8,1745.5v-125.1h17.9v125.1H1175.8z"/>
		<path d="M1273.2,1745.5v-106.2l-17.9,13.2v-19l17.9-13.2h17.9v125.1H1273.2z"/>
		<path d="M1333,1745.5l27.9-125.1h14.9l27.9,125.1h-17.9l-5.3-26.9h-24.4l-5.3,26.9H1333z M1377.3,1701.7l-8.8-45.3h-0.4l-8.8,45.3
			H1377.3z"/>
		<path d="M1472.2,1620.4l-25.7,125.1h-15.8l-25.5-125.1h19l14.2,87.4h0.4l14.4-87.4H1472.2z"/>
		<path d="M1488.2,1745.5v-125.1h28.8c21.1,0,31.6,12.2,31.6,36.7c0,7.4-1.1,13.7-3.4,18.8c-2.3,5.2-6.3,9.3-12,12.5l19.3,57.1h-19
			l-16.7-53.4h-10.7v53.4H1488.2z M1506.1,1637.2v39h10.2c3.2,0,5.7-0.4,7.6-1.3c1.9-0.9,3.3-2.1,4.4-3.8c0.9-1.6,1.6-3.7,1.9-6.1
			c0.4-2.4,0.5-5.2,0.5-8.3s-0.2-5.9-0.5-8.3c-0.4-2.4-1.1-4.5-2.1-6.2c-2.2-3.3-6.4-4.9-12.7-4.9H1506.1z"/>
		<path d="M1605.6,1705.8v-17.9h52.9v17.9H1605.6z"/>
		<path d="M1736.7,1745.5v-106.2l-17.9,13.2v-19l17.9-13.2h17.9v125.1H1736.7z"/>
		<path d="M1804.5,1745.5v-125.1h26.5c10.3,0,18.1,2.8,23.5,8.4c5.3,5.6,8,13.6,8,23.9v58.5c0,11.7-2.8,20.4-8.5,25.9
			c-5.7,5.6-13.9,8.3-24.5,8.3H1804.5z M1822.4,1637.2v91.4h8.3c5,0,8.6-1.3,10.7-3.8c2.1-2.5,3.2-6.5,3.2-11.9v-60.3
			c0-4.9-1-8.7-3-11.4c-2-2.7-5.6-4-10.9-4H1822.4z"/>
		<path d="M1884.7,1745.5v-125.1h53.4v16.9h-35.5v36.7h30.9v16.9h-30.9v36.7h35.5v17.9H1884.7z M1899.1,1614.7l15.8-24.8h19
			l-23.2,24.8H1899.1z"/>
		<path d="M2011.9,1709.8v7.7c0,3.9-0.7,7.5-2.2,11c-1.5,3.5-3.5,6.5-6.1,9.2c-2.6,2.7-5.6,4.8-9.1,6.4c-3.5,1.6-7.2,2.4-11.2,2.4
			c-3.4,0-6.9-0.5-10.4-1.4c-3.5-0.9-6.7-2.6-9.5-4.9c-2.8-2.3-5.1-5.4-6.9-9.1c-1.8-3.7-2.7-8.4-2.7-14.1v-68.9
			c0-4.1,0.7-7.9,2.1-11.4c1.4-3.5,3.4-6.6,6-9.1c2.6-2.6,5.7-4.6,9.2-6.1c3.6-1.5,7.5-2.2,11.9-2.2c8.4,0,15.3,2.8,20.6,8.3
			c2.6,2.7,4.6,5.9,6.1,9.6c1.5,3.7,2.2,7.7,2.2,12v7H1994v-6c0-3.5-1-6.6-3-9.1c-2-2.6-4.7-3.9-8.1-3.9c-4.5,0-7.4,1.4-8.9,4.1
			c-1.5,2.8-2.2,6.2-2.2,10.5v64c0,3.6,0.8,6.7,2.4,9.1c1.6,2.5,4.4,3.7,8.5,3.7c1.2,0,2.4-0.2,3.8-0.6c1.3-0.4,2.6-1.1,3.8-2
			c1.1-0.9,1.9-2.2,2.6-3.9c0.7-1.6,1.1-3.7,1.1-6.2v-6.2H2011.9z"/>
	</g>
	<g>
		<g>
			<line class="st13" x1="635.3" y1="1388.7" x2="439.7" y2="1388.7"/>
			<line class="st14" x1="439.7" y1="1344" x2="439.7" y2="1433.3"/>
		</g>
		<line class="st14" x1="635.3" y1="635.1" x2="635.3" y2="1433.3"/>
	</g>
	<g>
		<line class="st13" x1="1994.7" y1="1388.7" x2="2190.3" y2="1388.7"/>
		<line class="st14" x1="2190.3" y1="1344" x2="2190.3" y2="1433.3"/>
		<line class="st14" x1="1994.7" y1="635.1" x2="1994.7" y2="1433.3"/>
	</g>
	<line class="st14" x1="833.4" y1="1388.7" x2="1734.1" y2="1388.7"/>
	<g>
		<path d="M672.4,2171.7c0-3.4,0.1-6.3,0.4-8.7c0.2-2.4,0.6-4.5,1.2-6.2c0.6-1.8,1.3-3.3,2-4.7c0.8-1.4,1.7-2.9,2.9-4.4
			c2.3-3,5.3-5.4,8.8-7.1c3.5-1.7,7.3-2.5,11.4-2.5c4.1,0,7.9,0.8,11.4,2.5c3.5,1.7,6.4,4.1,8.8,7.1c1.2,1.5,2.2,3,3,4.4
			c0.8,1.4,1.5,3,2.1,4.7c0.6,1.8,1,3.8,1.1,6.2c0.2,2.4,0.3,5.3,0.3,8.7c0,3.8-0.1,6.9-0.2,9.5c-0.1,2.6-0.5,4.9-1.1,6.9
			c-0.6,2-1.5,3.8-2.7,5.4c-1.2,1.6-2.9,3.3-5,5c2.1,1.6,3.8,3.3,5,4.9c1.2,1.6,2.1,3.6,2.7,5.8c0.6,2.2,0.9,5,1.1,8.2
			c0.1,3.2,0.2,7.2,0.2,11.9c0,3.9-0.1,7.1-0.3,9.6c-0.2,2.5-0.4,4.7-0.8,6.6c-0.4,1.9-0.9,3.5-1.5,4.7c-0.6,1.3-1.4,2.6-2.4,4
			c-2,3-4.8,5.7-8.4,7.8c-3.6,2.2-8.1,3.3-13.4,3.3s-9.7-1.1-13.4-3.3c-3.6-2.2-6.4-4.8-8.4-7.8c-0.9-1.4-1.7-2.8-2.4-4
			c-0.6-1.3-1.1-2.9-1.5-4.7c-0.4-1.9-0.6-4.1-0.8-6.6c-0.2-2.5-0.3-5.7-0.3-9.6c0-4.7,0.1-8.6,0.2-11.9c0.1-3.2,0.5-5.9,1.1-8.2
			c0.6-2.2,1.5-4.2,2.7-5.8c1.2-1.6,2.9-3.3,5-4.9c-2.1-1.8-3.8-3.4-5-5c-1.2-1.6-2.1-3.4-2.7-5.4c-0.6-2-0.9-4.3-1.1-6.9
			C672.5,2178.7,672.4,2175.5,672.4,2171.7z M707.9,2164.7c0-2.5-0.9-4.5-2.6-6.2c-1.8-1.7-3.8-2.5-6.2-2.5c-2.3,0-4.4,0.9-6.2,2.5
			c-1.8,1.7-2.6,3.8-2.6,6.2v18.3c0,2.5,0.9,4.5,2.6,6.2c1.8,1.7,3.8,2.5,6.2,2.5c2.3,0,4.4-0.8,6.2-2.5c1.8-1.7,2.6-3.8,2.6-6.2
			V2164.7z M707.9,2213.9c0-2.5-0.9-4.5-2.6-6.2c-1.8-1.7-3.8-2.5-6.2-2.5c-2.3,0-4.4,0.9-6.2,2.5c-1.8,1.7-2.6,3.8-2.6,6.2v24.6
			c0,2.5,0.9,4.5,2.6,6.2c1.8,1.7,3.8,2.5,6.2,2.5c2.3,0,4.4-0.8,6.2-2.5c1.8-1.7,2.6-3.8,2.6-6.2V2213.9z"/>
		<path d="M744.5,2264.2v-125.1h17.9v44.6h0.4c1.9-2.8,4.1-5.1,6.8-6.9c2.6-1.8,6-2.7,10.1-2.7c2.2,0,4.5,0.4,6.7,1.1
			c2.2,0.8,4.2,2,6,3.8c1.8,1.8,3.2,4,4.2,6.8c1.1,2.8,1.6,6.1,1.6,10.1v68.4h-17.9v-61.7c0-3.3-0.8-5.9-2.3-7.7
			c-1.5-1.9-3.7-2.8-6.5-2.8c-3.4,0-5.7,1.1-7,3.2c-1.3,2.1-1.9,5.2-1.9,9.1v59.9H744.5z"/>
	</g>
	<g>
		<g>
			<line class="st13" x1="635.3" y1="2219.6" x2="155.8" y2="2219.6"/>
			<line class="st14" x1="155.8" y1="2174.9" x2="155.8" y2="2264.2"/>
		</g>
		<line class="st14" x1="635.3" y1="1826.1" x2="635.3" y2="2264.2"/>
	</g>
	<line class="st15" x1="63.4" y1="1526.2" x2="2566" y2="1526.2"/>
	<g>
		<path d="M982.5,2264.2V2158l-17.9,13.2v-19l17.9-13.2h17.9v125.1H982.5z"/>
		<path d="M1018.7,2264.2v-16.9l32.3-61c1.6-3,2.6-5.7,2.8-8c0.2-2.3,0.4-5.1,0.4-8.5c0-1.5,0-3.1-0.1-4.8c-0.1-1.7-0.4-3.2-1-4.5
			c-0.6-1.3-1.5-2.4-2.6-3.3c-1.2-0.9-2.9-1.3-5.1-1.3c-2.7,0-4.8,0.8-6.4,2.3c-1.6,1.5-2.4,3.8-2.4,6.7v10.2h-17.9v-9.8
			c0-3.7,0.7-7.3,2.1-10.5c1.4-3.3,3.3-6.2,5.8-8.6c2.3-2.5,5.2-4.4,8.4-5.9c3.3-1.5,6.8-2.2,10.5-2.2c4.7,0,8.7,0.9,12,2.5
			c3.3,1.7,6.1,4,8.3,6.9c2.1,2.9,3.7,6.3,4.7,10c1,3.8,1.5,7.7,1.5,12c0,3-0.1,5.6-0.2,7.6c-0.1,2.1-0.4,4-0.7,5.9
			c-0.4,1.9-0.9,3.8-1.8,5.6c-0.8,1.9-1.9,4.2-3.3,6.9l-26.4,50.8h32.3v17.9H1018.7z"/>
		<path d="M1090.7,2264.2v-125.1h17.9v44.6h0.4c1.9-2.8,4.1-5.1,6.8-6.9s6-2.7,10.1-2.7c2.2,0,4.5,0.4,6.7,1.1c2.2,0.8,4.2,2,6,3.8
			c1.8,1.8,3.2,4,4.2,6.8c1.1,2.8,1.6,6.1,1.6,10.1v68.4h-17.9v-61.7c0-3.3-0.8-5.9-2.3-7.7c-1.5-1.9-3.7-2.8-6.5-2.8
			c-3.4,0-5.7,1.1-7,3.2c-1.3,2.1-1.9,5.2-1.9,9.1v59.9H1090.7z"/>
	</g>
	<g>
		<line class="st13" x1="1188.1" y1="2219.6" x2="2473" y2="2219.6"/>
		<line class="st14" x1="2473" y1="2174.9" x2="2473" y2="2264.2"/>
		<line class="st14" x1="1188.1" y1="1827.1" x2="1188.1" y2="2264.2"/>
	</g>
	<line class="st14" x1="833.4" y1="2219.6" x2="942.5" y2="2219.6"/>
</g>
<g id="Analysis">
</g>
</svg>
